   <svg
          width="27"
          height="27"
          viewBox="0 0 63 63"
          fill="none"
          xmlns="http://www.w3.org/2000/svg"
        >
          <path
            fillRule="evenodd"
            clipRule="evenodd"
            d="M29.5269 0C27.7011 0 26.1186 1.26395 25.7149 3.04457L24.6201 7.87379C22.8772 8.38064 21.2146 9.07475 19.6557 9.93238L15.4664 7.29152C13.9219 6.31792 11.9091 6.5432 10.6181 7.8342L7.83094 10.6214C6.53995 11.9124 6.31462 13.9252 7.28827 15.4697L9.93009 19.6605C9.07315 21.2189 8.37969 22.881 7.87334 24.6233L3.04454 25.718C1.26395 26.1217 0 27.7043 0 29.53V33.4716C0 35.2974 1.26395 36.88 3.04454 37.2837L7.87389 38.3786C8.38056 40.1213 9.07443 41.7837 9.93179 43.3426L7.29043 47.5328C6.31678 49.077 6.54211 51.0898 7.8331 52.381L10.6203 55.1682C11.9113 56.459 13.9241 56.6843 15.4686 55.7108L19.659 53.0694C21.2169 53.9261 22.8784 54.6196 24.6201 55.1259L25.7149 59.9553C26.1186 61.7359 27.7011 63 29.5269 63H33.4685C35.2943 63 36.8769 61.7359 37.2805 59.9553L38.375 55.1277C40.1181 54.6214 41.7811 53.9275 43.3403 53.0703L47.5305 55.7118C49.0747 56.6853 51.0875 56.4599 52.3787 55.1691L55.1659 52.3819C56.4567 51.0907 56.6821 49.0779 55.7085 47.5337L53.0681 43.3449C53.9261 41.7854 54.6205 40.122 55.1273 38.3782L59.9553 37.2837C61.7359 36.88 63 35.2974 63 33.4716V29.53C63 27.7043 61.7359 26.1217 59.9553 25.718L55.1277 24.6236C54.6214 22.8803 53.9275 21.2173 53.0699 19.658L55.7104 15.4688C56.6844 13.9242 56.459 11.9115 55.1678 10.6204L52.3806 7.83328C51.0898 6.54228 49.077 6.31695 47.5323 7.2906L43.3435 9.93127C41.7833 9.07314 40.1193 8.3788 38.375 7.87204L37.2805 3.04457C36.8769 1.26395 35.2943 0 33.4685 0H29.5269ZM19.6381 14.5419C22.0602 12.8445 24.8626 11.6527 27.8921 11.12L29.5269 3.90878H33.4685L35.1031 11.1189C38.1341 11.651 40.938 12.8428 43.3614 14.5406L49.6168 10.5972L52.404 13.3843L48.4603 19.6401C50.1576 22.0627 51.3491 24.8656 51.8812 27.8955L59.0912 29.53V33.4716L51.8807 35.1063C51.3482 38.1366 50.1563 40.9399 48.4585 43.3623L52.4017 49.6182L49.6145 52.4049L43.3582 48.4612C40.9358 50.1581 38.1329 51.3491 35.1031 51.8812L33.4685 59.0912H29.5269L27.8921 51.8798C24.8638 51.3473 22.0624 50.1562 19.641 48.4598L13.3842 52.404L10.597 49.6168L14.5411 43.3605C12.8441 40.9383 11.6527 38.1359 11.1203 35.1066L3.90875 33.4716V29.53L11.12 27.8952C11.6521 24.8663 12.8429 22.0643 14.5392 19.6423L10.5949 13.3853L13.382 10.5982L19.6381 14.5419ZM38.5125 31.4994C38.5125 35.3722 35.373 38.5117 31.5002 38.5117C27.6273 38.5117 24.4878 35.3722 24.4878 31.4994C24.4878 27.6265 27.6273 24.4869 31.5002 24.4869C35.373 24.4869 38.5125 27.6265 38.5125 31.4994ZM42.6512 31.4994C42.6512 37.6579 37.6587 42.6504 31.5002 42.6504C25.3416 42.6504 20.3491 37.6579 20.3491 31.4994C20.3491 25.3408 25.3416 20.3482 31.5002 20.3482C37.6587 20.3482 42.6512 25.3408 42.6512 31.4994Z"
          />
        </svg>