<svg width="28" height="28" viewBox="0 0 64 55" fill="none" xmlns="http://www.w3.org/2000/svg">
<path fill-rule="evenodd" clip-rule="evenodd" d="M61.1291 33.4218C61.7888 34.0366 62.822 34.0002 63.4368 33.3405C64.0516 32.6808 64.0152 31.6476 63.3555 31.0328L61.5637 29.363L63.2335 27.5713C63.8483 26.9115 63.8119 25.8784 63.1522 25.2636C62.4925 24.6488 61.4594 24.6851 60.8445 25.3449L59.1747 27.1366L57.383 25.4668C56.7233 24.852 55.6901 24.8884 55.0753 25.5481C54.4605 26.2078 54.4969 27.241 55.1566 27.8558L56.9484 29.5256L55.2786 31.3173C54.6638 31.977 54.7002 33.0102 55.3599 33.625C56.0196 34.2398 57.0528 34.2034 57.6675 33.5437L59.3373 31.752L61.1291 33.4218ZM43.8214 34.0315C44.4811 34.6463 45.5143 34.6099 46.1291 33.9502C46.7439 33.2905 46.7075 32.2573 46.0478 31.6425L44.2561 29.9727L45.9259 28.181C46.5407 27.5212 46.5043 26.4881 45.8446 25.8733C45.1849 25.2585 44.1517 25.2948 43.5369 25.9546L41.8671 27.7463L40.0754 26.0765C39.4157 25.4617 38.3825 25.4981 37.7677 26.1578C37.1529 26.8175 37.1893 27.8507 37.849 28.4655L39.6407 30.1353L37.9709 31.927C37.3561 32.5867 37.3925 33.6199 38.0522 34.2347C38.7119 34.8495 39.7451 34.8131 40.3599 34.1534L42.0297 32.3617L43.8214 34.0315ZM45.9947 13.7376C46.6544 14.3524 47.6876 14.316 48.3024 13.6563C48.9172 12.9966 48.8808 11.9634 48.2211 11.3486L46.4294 9.67881L48.0992 7.88706C48.714 7.22736 48.6776 6.19419 48.0179 5.57937C47.3582 4.96458 46.325 5.00097 45.7102 5.66067L44.0404 7.45241L42.2486 5.78262C41.589 5.16783 40.5558 5.20422 39.941 5.86394C39.3262 6.52363 39.3626 7.55681 40.0222 8.1716L41.814 9.8414L40.1442 11.6331C39.5294 12.2928 39.5658 13.326 40.2255 13.9408C40.8852 14.5556 41.9184 14.5192 42.5332 13.8595L44.203 12.0678L45.9947 13.7376ZM43.9827 48.9353L44.9319 48.1577C45.5973 47.5869 45.2074 46.5215 44.3398 46.3961C43.3422 46.2519 42.3509 46.0516 41.3706 45.795C37.1973 44.7025 33.227 42.5895 29.8498 39.4422C20.0795 30.3369 18.5952 15.6694 25.7296 4.88917C26.2814 4.05581 26.8889 3.24108 27.5441 2.45783C28.1069 1.78571 27.6852 0.732397 26.8089 0.752346C26.4095 0.761218 26.0106 0.779139 25.6121 0.805656L25.2121 0.835517L23.8166 0.985764L22.8493 1.13337L22.2432 1.24432L21.332 1.4383L20.4997 1.64403C19.9358 1.79346 19.3756 1.9611 18.8201 2.14763L17.683 2.55763L16.601 3.00319L15.3936 3.56773L14.4602 4.05556C13.9555 4.33256 13.4576 4.62664 12.9698 4.93692C12.5996 5.17249 12.2338 5.41774 11.8718 5.67391C11.4435 5.97718 11.022 6.29413 10.6085 6.62469L9.61081 7.46354L8.80613 8.20304C8.43081 8.56207 8.06357 8.93398 7.70495 9.31878C-2.43928 20.2038 -1.83874 37.2513 9.04626 47.3955C9.79219 48.0906 10.5671 48.7353 11.3667 49.3298L12.297 49.9914C13.0596 50.5097 13.8424 50.9842 14.6405 51.4143C15.6036 51.9336 16.5907 52.3898 17.5936 52.7816L18.7069 53.1886L19.4171 53.4197L20.0676 53.6124C21.4321 53.998 22.8202 54.2734 24.2206 54.4395L25.2457 54.5412L26.5136 54.613L27.5085 54.6273L28.212 54.6155L29.1279 54.573L30.3451 54.4681L32.0144 54.2332L33.2223 53.9964L34.6042 53.6543L36.0532 53.2102L37.4573 52.6925L37.9285 52.4983L38.8955 52.0664L39.9759 51.5279L40.9237 51.0036L42.0958 50.283L43.0119 49.6595L43.9827 48.9353ZM25.913 42.469C28.972 45.3198 32.4562 47.4342 36.1442 48.8191C28.1338 52.1222 18.5829 50.7033 11.8293 44.4093C2.59354 35.8021 2.08399 21.3375 10.6912 12.1018C13.1034 9.51343 15.9739 7.6104 19.0615 6.40117C16.371 12.031 15.4851 18.2857 16.3739 24.3168C15.4365 24.2042 14.4602 24.5256 13.7672 25.2691C12.6145 26.5061 12.6827 28.4434 13.9196 29.5961C14.9861 30.59 16.5732 30.6762 17.7293 29.8882C17.9045 30.3978 18.0932 30.9036 18.2956 31.405C17.4108 31.6461 16.5801 32.1285 15.9088 32.8488C13.9877 34.9102 14.1013 38.1391 16.1629 40.0603C18.2239 41.9811 21.4515 41.8677 23.373 39.8078C24.1573 40.7329 25.004 41.6219 25.913 42.469Z"/>
</svg>
